<svg width="48" height="48" viewBox="0 0 48 48" fill="none" xmlns="http://www.w3.org/2000/svg">
<rect width="48" height="48" rx="8" fill="#E0E0E0"/>
<path d="M38.3146 4H9.70227C5.98486 4 4 5.92559 4 9.57756V11.0384H44V9.57756C44 5.92559 42.032 4 38.3146 4ZM9.70227 33H38.3146C42.032 33 44 31.0578 44 27.4224V15.0057H4V27.4224C4 31.0744 5.98486 33 9.70227 33Z" fill="#828282" fill-opacity="0.85"/>
<g filter="url(#filter0_b_2_847)">
<rect x="12" y="22" width="24" height="22" rx="11" fill="white" fill-opacity="0.7"/>
<path d="M16.8955 34.521H21.6196V32.895H16.8955V34.521ZM26.8711 39.062H27.6621V37.8315C29.6396 37.7144 31.1118 36.6597 31.1118 34.8433V34.8286C31.1118 33.2612 30.0938 32.4482 28.1089 32.0015L27.6621 31.9062V29.0718C28.5703 29.1816 29.1636 29.6797 29.2734 30.478L29.2808 30.5439H30.9873L30.98 30.4268C30.8481 28.7861 29.5591 27.7314 27.6621 27.5996V26.3691H26.8711V27.5996C24.9155 27.7241 23.5605 28.8374 23.5605 30.5V30.5146C23.5605 32.0308 24.5566 32.9023 26.4609 33.3271L26.8711 33.415V36.3667C25.7358 36.2495 25.2231 35.6855 25.0913 34.9531L25.0767 34.8726H23.3701L23.3774 34.9751C23.4946 36.667 24.9082 37.7144 26.8711 37.8315V39.062ZM25.3257 30.3828V30.3755C25.3257 29.7456 25.853 29.1743 26.8711 29.0645V31.7305C25.7505 31.4741 25.3257 31.0273 25.3257 30.3828ZM29.354 34.9897V35.0044C29.354 35.7295 28.856 36.2861 27.6621 36.374V33.5908C28.9731 33.8911 29.354 34.3013 29.354 34.9897Z" fill="#828282" fill-opacity="0.85"/>
</g>
<defs>
<filter id="filter0_b_2_847" x="-8" y="2" width="64" height="62" filterUnits="userSpaceOnUse" color-interpolation-filters="sRGB">
<feFlood flood-opacity="0" result="BackgroundImageFix"/>
<feGaussianBlur in="BackgroundImageFix" stdDeviation="10"/>
<feComposite in2="SourceAlpha" operator="in" result="effect1_backgroundBlur_2_847"/>
<feBlend mode="normal" in="SourceGraphic" in2="effect1_backgroundBlur_2_847" result="shape"/>
</filter>
</defs>
</svg>
